<?xml version="1.0" encoding="UTF-8"?>
<svg xmlns="http://www.w3.org/2000/svg" width="2048" height="2048" viewBox="0 0 2048 2048">
  <g fill="#d56a1a">
    <path id="ear" d="M 1041.00 198.00 C 1033.67 197.67 1012.50 197.67 1005.00 198.00 C 997.50 198.33 999.67 199.67 996.00 200.00 C 992.33 200.33 985.83 199.67 983.00 200.00 C 980.17 200.33 981.17 201.67 979.00 202.00 C 976.83 202.33 972.17 201.67 970.00 202.00 C 967.83 202.33 969.00 203.33 966.00 204.00 C 963.00 204.67 954.83 205.33 952.00 206.00 C 949.17 206.67 950.33 207.67 949.00 208.00 C 947.67 208.33 945.17 207.67 944.00 208.00 C 942.83 208.33 943.00 209.67 942.00 210.00 C 941.00 210.33 939.17 209.67 938.00 210.00 C 936.83 210.33 938.00 211.00 935.00 212.00 C 932.00 213.00 922.83 215.00 920.00 216.00 C 917.17 217.00 919.83 217.33 918.00 218.00 C 916.17 218.67 911.67 219.00 909.00 220.00 C 906.33 221.00 903.67 223.33 902.00 224.00 C 900.33 224.67 900.67 223.33 899.00 224.00 C 897.33 224.67 893.50 227.33 892.00 228.00 C 890.50 228.67 890.67 227.67 890.00 228.00 C 889.33 228.33 890.67 228.67 888.00 230.00 C 885.33 231.33 878.33 233.67 874.00 236.00 C 869.67 238.33 864.33 242.67 862.00 244.00 C 859.67 245.33 861.67 243.00 860.00 244.00 C 858.33 245.00 853.67 249.00 852.00 250.00 C 850.33 251.00 851.00 249.33 850.00 250.00 C 849.00 250.67 847.00 253.33 846.00 254.00 C 845.00 254.67 850.00 249.67 844.00 254.00 C 838.00 258.33 820.67 270.67 810.00 280.00 C 799.33 289.33 788.00 301.33 780.00 310.00 C 772.00 318.67 768.33 323.33 762.00 332.00 C 755.67 340.67 745.33 356.67 742.00 362.00 C 738.67 367.33 743.00 362.17 742.00 364.00 C 741.00 365.83 737.00 371.17 736.00 373.00 C 735.00 374.83 737.33 372.33 736.00 375.00 C 734.67 377.67 730.67 383.33 728.00 389.00 C 725.33 394.67 721.33 405.17 720.00 409.00 C 718.67 412.83 720.33 411.17 720.00 412.00 C 719.67 412.83 718.33 413.00 718.00 414.00 C 717.67 415.00 718.33 417.00 718.00 418.00 C 717.67 419.00 716.33 419.00 716.00 420.00 C 715.67 421.00 716.67 421.67 716.00 424.00 C 715.33 426.33 712.67 431.50 712.00 434.00 C 711.33 436.50 712.33 437.67 712.00 439.00 C 711.67 440.33 710.33 440.67 710.00 442.00 C 709.67 443.33 710.33 445.50 710.00 447.00 C 709.67 448.50 708.33 449.17 708.00 451.00 C 707.67 452.83 708.33 456.17 708.00 458.00 C 707.67 459.83 706.33 459.83 706.00 462.00 C 705.67 464.17 706.33 468.67 706.00 471.00 C 705.67 473.33 704.33 473.00 704.00 476.00 C 703.67 479.00 704.33 485.17 704.00 489.00 C 703.67 492.83 702.33 493.00 702.00 499.00 C 701.67 505.00 701.83 520.50 702.00 525.00 C 702.17 529.50 702.67 521.50 703.00 526.00 C 703.33 530.50 703.50 546.67 704.00 552.00 C 704.50 557.33 705.67 555.50 706.00 558.00 C 706.33 560.50 705.67 564.83 706.00 567.00 C 706.33 569.17 707.67 569.33 708.00 571.00 C 708.33 572.67 707.67 575.33 708.00 577.00 C 708.33 578.67 709.67 579.50 710.00 581.00 C 710.33 582.50 709.67 584.67 710.00 586.00 C 710.33 587.33 711.67 587.67 712.00 589.00 C 712.33 590.33 711.67 592.67 712.00 594.00 C 712.33 595.33 713.67 595.83 714.00 597.00 C 714.33 598.17 713.67 599.83 714.00 601.00 C 714.33 602.17 715.00 601.00 716.00 604.00 C 717.00 607.00 717.67 612.67 720.00 619.00 C 722.33 625.33 725.50 633.17 730.00 642.00 C 734.50 650.83 742.83 665.33 747.00 672.00 C 751.17 678.67 753.50 679.83 755.00 682.00 C 756.50 684.17 752.17 680.33 756.00 685.00 C 759.83 689.67 769.00 701.00 778.00 710.00 C 787.00 719.00 801.33 731.83 810.00 739.00 C 818.67 746.17 826.33 750.67 830.00 753.00 C 833.67 755.33 831.00 752.33 832.00 753.00 C 833.00 753.67 834.83 756.17 836.00 757.00 C 837.17 757.83 838.67 756.67 839.00 758.00 C 839.33 759.33 839.17 761.83 838.00 765.00 C 836.83 768.17 833.00 774.50 832.00 777.00 C 831.00 779.50 832.33 779.00 832.00 780.00 C 831.67 781.00 830.33 782.00 830.00 783.00 C 829.67 784.00 830.33 785.17 830.00 786.00 C 829.67 786.83 828.67 786.00 828.00 788.00 C 827.33 790.00 827.00 794.67 826.00 798.00 C 825.00 801.33 822.67 805.67 822.00 808.00 C 821.33 810.33 822.33 810.67 822.00 812.00 C 821.67 813.33 820.33 814.33 820.00 816.00 C 819.67 817.67 820.33 820.17 820.00 822.00 C 819.67 823.83 818.33 824.67 818.00 827.00 C 817.67 829.33 818.33 833.50 818.00 836.00 C 817.67 838.50 816.33 835.50 816.00 842.00 C 815.67 848.50 815.67 868.67 816.00 875.00 C 816.33 881.33 817.67 877.83 818.00 880.00 C 818.33 882.17 817.67 886.00 818.00 888.00 C 818.33 890.00 819.67 890.33 820.00 892.00 C 820.33 893.67 819.67 896.33 820.00 898.00 C 820.33 899.67 821.33 899.67 822.00 902.00 C 822.67 904.33 823.33 909.83 824.00 912.00 C 824.67 914.17 825.67 914.00 826.00 915.00 C 826.33 916.00 825.00 915.00 826.00 918.00 C 827.00 921.00 830.00 928.83 832.00 933.00 C 834.00 937.17 837.00 941.00 838.00 943.00 C 839.00 945.00 835.00 940.33 838.00 945.00 C 841.00 949.67 849.00 962.67 856.00 971.00 C 863.00 979.33 872.67 988.67 880.00 995.00 C 887.33 1001.33 893.67 1005.00 900.00 1009.00 C 906.33 1013.00 912.50 1016.33 918.00 1019.00 C 923.50 1021.67 930.00 1024.00 933.00 1025.00 C 936.00 1026.00 935.00 1024.67 936.00 1025.00 C 937.00 1025.33 937.83 1026.67 939.00 1027.00 C 940.17 1027.33 940.67 1026.33 943.00 1027.00 C 945.33 1027.67 950.17 1030.33 953.00 1031.00 C 955.83 1031.67 958.17 1030.67 960.00 1031.00 C 961.83 1031.33 961.50 1032.67 964.00 1033.00 C 966.50 1033.33 971.83 1032.67 975.00 1033.00 C 978.17 1033.33 979.00 1034.67 983.00 1035.00 C 987.00 1035.33 996.17 1035.17 999.00 1035.00 C 1001.83 1034.83 996.67 1034.33 1000.00 1034.00 C 1003.33 1033.67 1015.17 1033.50 1019.00 1033.00 C 1022.83 1032.50 1021.33 1031.33 1023.00 1031.00 C 1024.67 1030.67 1027.50 1031.33 1029.00 1031.00 C 1030.50 1030.67 1030.67 1029.33 1032.00 1029.00 C 1033.33 1028.67 1035.50 1029.33 1037.00 1029.00 C 1038.50 1028.67 1039.67 1027.33 1041.00 1027.00 C 1042.33 1026.67 1044.00 1027.33 1045.00 1027.00 C 1046.00 1026.67 1046.00 1025.33 1047.00 1025.00 C 1048.00 1024.67 1050.00 1025.33 1051.00 1025.00 C 1052.00 1024.67 1052.17 1023.33 1053.00 1023.00 C 1053.83 1022.67 1054.33 1023.67 1056.00 1023.00 C 1057.67 1022.33 1060.67 1020.00 1063.00 1019.00 C 1065.33 1018.00 1067.83 1018.00 1070.00 1017.00 C 1072.17 1016.00 1074.67 1013.67 1076.00 1013.00 C 1077.33 1012.33 1073.50 1015.67 1078.00 1013.00 C 1082.50 1010.33 1097.83 1000.67 1103.00 997.00 C 1108.17 993.33 1107.33 992.33 1109.00 991.00 C 1110.67 989.67 1108.00 993.50 1113.00 989.00 C 1118.00 984.50 1129.83 973.83 1139.00 964.00 C 1148.17 954.17 1162.00 937.50 1168.00 930.00 C 1174.00 922.50 1170.17 925.50 1175.00 919.00 C 1179.83 912.50 1193.33 896.00 1197.00 891.00 C 1200.67 886.00 1196.50 889.83 1197.00 889.00 C 1197.50 888.17 1199.33 887.00 1200.00 886.00 C 1200.67 885.00 1197.83 887.83 1201.00 883.00 C 1204.17 878.17 1216.00 861.67 1219.00 857.00 C 1222.00 852.33 1217.33 857.67 1219.00 855.00 C 1220.67 852.33 1227.00 844.33 1229.00 841.00 C 1231.00 837.67 1230.17 836.50 1231.00 835.00 C 1231.83 833.50 1231.00 836.67 1234.00 832.00 C 1237.00 827.33 1246.50 811.50 1249.00 807.00 C 1251.50 802.50 1246.67 809.00 1249.00 805.00 C 1251.33 801.00 1260.67 787.00 1263.00 783.00 C 1265.33 779.00 1261.67 783.33 1263.00 781.00 C 1264.33 778.67 1269.67 771.33 1271.00 769.00 C 1272.33 766.67 1268.67 771.33 1271.00 767.00 C 1273.33 762.67 1282.33 748.00 1285.00 743.00 C 1287.67 738.00 1285.67 739.50 1287.00 737.00 C 1288.33 734.50 1290.67 732.67 1293.00 728.00 C 1295.33 723.33 1298.33 714.50 1301.00 709.00 C 1303.67 703.50 1307.67 697.83 1309.00 695.00 C 1310.33 692.17 1308.67 692.83 1309.00 692.00 C 1309.33 691.17 1309.00 694.50 1311.00 690.00 C 1313.00 685.50 1319.33 669.67 1321.00 665.00 C 1322.67 660.33 1320.33 663.83 1321.00 662.00 C 1321.67 660.17 1324.00 657.00 1325.00 654.00 C 1326.00 651.00 1326.33 646.17 1327.00 644.00 C 1327.67 641.83 1328.67 642.17 1329.00 641.00 C 1329.33 639.83 1328.67 638.17 1329.00 637.00 C 1329.33 635.83 1330.67 635.17 1331.00 634.00 C 1331.33 632.83 1330.67 631.17 1331.00 630.00 C 1331.33 628.83 1332.33 629.67 1333.00 627.00 C 1333.67 624.33 1334.33 616.83 1335.00 614.00 C 1335.67 611.17 1336.67 611.50 1337.00 610.00 C 1337.33 608.50 1336.67 606.50 1337.00 605.00 C 1337.33 603.50 1338.67 602.67 1339.00 601.00 C 1339.33 599.33 1338.67 596.67 1339.00 595.00 C 1339.33 593.33 1340.67 593.00 1341.00 591.00 C 1341.33 589.00 1340.67 585.00 1341.00 583.00 C 1341.33 581.00 1342.67 581.67 1343.00 579.00 C 1343.33 576.33 1342.67 570.00 1343.00 567.00 C 1343.33 564.00 1344.67 565.17 1345.00 561.00 C 1345.33 556.83 1344.67 546.83 1345.00 542.00 C 1345.33 537.17 1347.00 541.00 1347.00 532.00 C 1347.00 523.00 1345.67 496.50 1345.00 488.00 C 1344.33 479.50 1343.33 484.00 1343.00 481.00 C 1342.67 478.00 1343.33 472.50 1343.00 470.00 C 1342.67 467.50 1341.33 467.83 1341.00 466.00 C 1340.67 464.17 1341.33 460.83 1341.00 459.00 C 1340.67 457.17 1339.33 456.67 1339.00 455.00 C 1338.67 453.33 1339.33 450.50 1339.00 449.00 C 1338.67 447.50 1337.33 447.33 1337.00 446.00 C 1336.67 444.67 1337.67 443.50 1337.00 441.00 C 1336.33 438.50 1333.67 433.50 1333.00 431.00 C 1332.33 428.50 1333.33 427.17 1333.00 426.00 C 1332.67 424.83 1331.33 425.00 1331.00 424.00 C 1330.67 423.00 1331.33 421.17 1331.00 420.00 C 1330.67 418.83 1330.00 420.00 1329.00 417.00 C 1328.00 414.00 1326.00 404.83 1325.00 402.00 C 1324.00 399.17 1324.00 402.33 1323.00 400.00 C 1322.00 397.67 1320.00 390.33 1319.00 388.00 C 1318.00 385.67 1318.33 388.83 1317.00 386.00 C 1315.67 383.17 1312.67 374.33 1311.00 371.00 C 1309.33 367.67 1308.00 367.83 1307.00 366.00 C 1306.00 364.17 1307.67 364.67 1305.00 360.00 C 1302.33 355.33 1296.67 346.00 1291.00 338.00 C 1285.33 330.00 1280.00 322.00 1271.00 312.00 C 1262.00 302.00 1243.33 284.00 1237.00 278.00 C 1230.67 272.00 1234.67 277.33 1233.00 276.00 C 1231.33 274.67 1233.67 275.00 1227.00 270.00 C 1220.33 265.00 1199.00 250.00 1193.00 246.00 C 1187.00 242.00 1192.67 247.00 1191.00 246.00 C 1189.33 245.00 1184.67 241.00 1183.00 240.00 C 1181.33 239.00 1185.00 242.00 1181.00 240.00 C 1177.00 238.00 1163.83 230.33 1159.00 228.00 C 1154.17 225.67 1153.50 226.67 1152.00 226.00 C 1150.50 225.33 1150.83 224.33 1150.00 224.00 C 1149.17 223.67 1147.83 224.33 1147.00 224.00 C 1146.17 223.67 1147.00 223.00 1145.00 222.00 C 1143.00 221.00 1138.00 219.00 1135.00 218.00 C 1132.00 217.00 1128.83 216.67 1127.00 216.00 C 1125.17 215.33 1125.17 214.33 1124.00 214.00 C 1122.83 213.67 1121.17 214.33 1120.00 214.00 C 1118.83 213.67 1118.17 212.33 1117.00 212.00 C 1115.83 211.67 1114.00 212.33 1113.00 212.00 C 1112.00 211.67 1112.00 210.33 1111.00 210.00 C 1110.00 209.67 1108.17 210.33 1107.00 210.00 C 1105.83 209.67 1105.33 208.33 1104.00 208.00 C 1102.67 207.67 1100.33 208.33 1099.00 208.00 C 1097.67 207.67 1097.50 206.33 1096.00 206.00 C 1094.50 205.67 1091.50 206.33 1090.00 206.00 C 1088.50 205.67 1088.50 204.33 1087.00 204.00 C 1085.50 203.67 1082.67 204.33 1081.00 204.00 C 1079.33 203.67 1079.17 202.33 1077.00 202.00 C 1074.83 201.67 1070.33 202.33 1068.00 202.00 C 1065.67 201.67 1066.17 200.33 1063.00 200.00 C 1059.83 199.67 1052.67 200.33 1049.00 200.00 C 1045.33 199.67 1048.33 198.33 1041.00 198.00 Z M 1043.00 283.00 C 1050.67 283.33 1047.17 284.67 1050.00 285.00 C 1052.83 285.33 1057.67 284.67 1060.00 285.00 C 1062.33 285.33 1062.00 286.67 1064.00 287.00 C 1066.00 287.33 1070.00 286.67 1072.00 287.00 C 1074.00 287.33 1074.50 288.67 1076.00 289.00 C 1077.50 289.33 1079.67 288.67 1081.00 289.00 C 1082.33 289.33 1082.83 290.67 1084.00 291.00 C 1085.17 291.33 1086.83 290.67 1088.00 291.00 C 1089.17 291.33 1090.00 292.67 1091.00 293.00 C 1092.00 293.33 1093.00 292.67 1094.00 293.00 C 1095.00 293.33 1094.00 294.00 1097.00 295.00 C 1100.00 296.00 1109.17 298.00 1112.00 299.00 C 1114.83 300.00 1112.50 300.33 1114.00 301.00 C 1115.50 301.67 1118.17 301.67 1121.00 303.00 C 1123.83 304.33 1129.00 308.00 1131.00 309.00 C 1133.00 310.00 1131.17 308.00 1133.00 309.00 C 1134.83 310.00 1140.17 314.00 1142.00 315.00 C 1143.83 316.00 1139.17 311.83 1144.00 315.00 C 1148.83 318.17 1164.00 328.67 1171.00 334.00 C 1178.00 339.33 1179.83 340.83 1186.00 347.00 C 1192.17 353.17 1201.33 362.67 1208.00 371.00 C 1214.67 379.33 1223.00 392.33 1226.00 397.00 C 1229.00 401.67 1225.33 397.83 1226.00 399.00 C 1226.67 400.17 1228.00 400.50 1230.00 404.00 C 1232.00 407.50 1236.67 417.00 1238.00 420.00 C 1239.33 423.00 1237.67 421.33 1238.00 422.00 C 1238.33 422.67 1239.67 423.17 1240.00 424.00 C 1240.33 424.83 1239.67 426.17 1240.00 427.00 C 1240.33 427.83 1241.00 427.00 1242.00 429.00 C 1243.00 431.00 1245.00 435.67 1246.00 439.00 C 1247.00 442.33 1247.00 445.67 1248.00 449.00 C 1249.00 452.33 1251.33 456.67 1252.00 459.00 C 1252.67 461.33 1251.67 461.83 1252.00 463.00 C 1252.33 464.17 1253.67 464.67 1254.00 466.00 C 1254.33 467.33 1253.67 469.50 1254.00 471.00 C 1254.33 472.50 1255.67 473.17 1256.00 475.00 C 1256.33 476.83 1255.67 480.17 1256.00 482.00 C 1256.33 483.83 1257.67 484.00 1258.00 486.00 C 1258.33 488.00 1257.67 492.00 1258.00 494.00 C 1258.33 496.00 1259.67 495.17 1260.00 498.00 C 1260.33 500.83 1259.67 507.33 1260.00 511.00 C 1260.33 514.67 1261.67 514.83 1262.00 520.00 C 1262.33 525.17 1262.17 538.17 1262.00 542.00 C 1261.83 545.83 1261.00 542.33 1261.00 543.00 C 1261.00 543.67 1262.17 544.17 1262.00 546.00 C 1261.83 547.83 1260.33 550.50 1260.00 554.00 C 1259.67 557.50 1260.33 563.83 1260.00 567.00 C 1259.67 570.17 1258.33 570.33 1258.00 573.00 C 1257.67 575.67 1258.33 580.67 1258.00 583.00 C 1257.67 585.33 1256.33 585.17 1256.00 587.00 C 1255.67 588.83 1256.33 592.17 1256.00 594.00 C 1255.67 595.83 1254.33 596.50 1254.00 598.00 C 1253.67 599.50 1254.33 601.67 1254.00 603.00 C 1253.67 604.33 1252.33 604.50 1252.00 606.00 C 1251.67 607.50 1252.33 610.67 1252.00 612.00 C 1251.67 613.33 1250.33 612.83 1250.00 614.00 C 1249.67 615.17 1250.33 617.67 1250.00 619.00 C 1249.67 620.33 1248.33 620.83 1248.00 622.00 C 1247.67 623.17 1248.33 625.00 1248.00 626.00 C 1247.67 627.00 1246.33 627.00 1246.00 628.00 C 1245.67 629.00 1246.33 630.83 1246.00 632.00 C 1245.67 633.17 1244.67 633.00 1244.00 635.00 C 1243.33 637.00 1242.67 642.17 1242.00 644.00 C 1241.33 645.83 1240.33 645.17 1240.00 646.00 C 1239.67 646.83 1240.33 648.17 1240.00 649.00 C 1239.67 649.83 1238.33 650.17 1238.00 651.00 C 1237.67 651.83 1238.33 653.17 1238.00 654.00 C 1237.67 654.83 1236.33 655.17 1236.00 656.00 C 1235.67 656.83 1236.33 658.17 1236.00 659.00 C 1235.67 659.83 1234.33 660.17 1234.00 661.00 C 1233.67 661.83 1234.33 663.17 1234.00 664.00 C 1233.67 664.83 1232.67 664.50 1232.00 666.00 C 1231.33 667.50 1233.33 666.33 1230.00 673.00 C 1226.67 679.67 1215.00 700.17 1212.00 706.00 C 1209.00 711.83 1213.67 705.00 1212.00 708.00 C 1210.33 711.00 1203.67 721.00 1202.00 724.00 C 1200.33 727.00 1203.33 723.67 1202.00 726.00 C 1200.67 728.33 1195.33 735.67 1194.00 738.00 C 1192.67 740.33 1196.67 735.67 1194.00 740.00 C 1191.33 744.33 1180.67 759.67 1178.00 764.00 C 1175.33 768.33 1179.00 764.33 1178.00 766.00 C 1177.00 767.67 1173.00 772.33 1172.00 774.00 C 1171.00 775.67 1174.67 771.67 1172.00 776.00 C 1169.33 780.33 1158.67 795.67 1156.00 800.00 C 1153.33 804.33 1156.50 801.17 1156.00 802.00 C 1155.50 802.83 1156.67 799.00 1153.00 805.00 C 1149.33 811.00 1141.17 826.50 1134.00 838.00 C 1126.83 849.50 1117.50 863.50 1110.00 874.00 C 1102.50 884.50 1095.67 893.33 1089.00 901.00 C 1082.33 908.67 1076.83 914.17 1070.00 920.00 C 1063.17 925.83 1053.33 932.67 1048.00 936.00 C 1042.67 939.33 1040.00 939.00 1038.00 940.00 C 1036.00 941.00 1037.67 941.33 1036.00 942.00 C 1034.33 942.67 1029.83 943.33 1028.00 944.00 C 1026.17 944.67 1026.17 945.67 1025.00 946.00 C 1023.83 946.33 1022.17 945.67 1021.00 946.00 C 1019.83 946.33 1019.50 947.67 1018.00 948.00 C 1016.50 948.33 1013.67 947.67 1012.00 948.00 C 1010.33 948.33 1013.67 949.67 1008.00 950.00 C 1002.33 950.33 984.00 950.33 978.00 950.00 C 972.00 949.67 974.00 948.33 972.00 948.00 C 970.00 947.67 967.50 948.33 966.00 948.00 C 964.50 947.67 964.00 946.33 963.00 946.00 C 962.00 945.67 962.33 946.67 960.00 946.00 C 957.67 945.33 951.83 943.33 949.00 942.00 C 946.17 940.67 944.33 938.67 943.00 938.00 C 941.67 937.33 943.67 939.67 941.00 938.00 C 938.33 936.33 931.33 931.83 927.00 928.00 C 922.67 924.17 918.33 919.17 915.00 915.00 C 911.67 910.83 909.00 906.83 907.00 903.00 C 905.00 899.17 904.00 894.17 903.00 892.00 C 902.00 889.83 901.33 891.00 901.00 890.00 C 900.67 889.00 901.33 887.17 901.00 886.00 C 900.67 884.83 899.33 884.33 899.00 883.00 C 898.67 881.67 899.33 879.33 899.00 878.00 C 898.67 876.67 897.33 881.33 897.00 875.00 C 896.67 868.67 896.67 846.67 897.00 840.00 C 897.33 833.33 898.33 838.00 899.00 835.00 C 899.67 832.00 900.33 824.67 901.00 822.00 C 901.67 819.33 902.67 820.17 903.00 819.00 C 903.33 817.83 902.67 816.00 903.00 815.00 C 903.33 814.00 904.67 814.00 905.00 813.00 C 905.33 812.00 904.67 810.00 905.00 809.00 C 905.33 808.00 906.67 808.00 907.00 807.00 C 907.33 806.00 906.67 804.00 907.00 803.00 C 907.33 802.00 907.67 804.33 909.00 801.00 C 910.33 797.67 913.33 787.00 915.00 783.00 C 916.67 779.00 918.33 778.50 919.00 777.00 C 919.67 775.50 918.67 774.83 919.00 774.00 C 919.33 773.17 919.67 774.83 921.00 772.00 C 922.33 769.17 925.67 759.83 927.00 757.00 C 928.33 754.17 928.00 757.00 929.00 755.00 C 930.00 753.00 931.00 748.67 933.00 745.00 C 935.00 741.33 939.67 735.33 941.00 733.00 C 942.33 730.67 939.33 733.83 941.00 731.00 C 942.67 728.17 949.33 718.83 951.00 716.00 C 952.67 713.17 951.50 714.67 951.00 714.00 C 950.50 713.33 949.00 712.33 948.00 712.00 C 947.00 711.67 945.83 712.33 945.00 712.00 C 944.17 711.67 945.17 710.67 943.00 710.00 C 940.83 709.33 939.00 710.33 932.00 708.00 C 925.00 705.67 911.33 700.83 901.00 696.00 C 890.67 691.17 879.83 685.67 870.00 679.00 C 860.17 672.33 849.50 662.83 842.00 656.00 C 834.50 649.17 828.83 642.33 825.00 638.00 C 821.17 633.67 820.17 631.83 819.00 630.00 C 817.83 628.17 819.33 629.00 818.00 627.00 C 816.67 625.00 812.17 619.83 811.00 618.00 C 809.83 616.17 812.67 619.17 811.00 616.00 C 809.33 612.83 803.00 603.00 801.00 599.00 C 799.00 595.00 799.67 593.50 799.00 592.00 C 798.33 590.50 797.33 591.00 797.00 590.00 C 796.67 589.00 797.33 587.00 797.00 586.00 C 796.67 585.00 795.67 585.83 795.00 584.00 C 794.33 582.17 793.67 577.00 793.00 575.00 C 792.33 573.00 791.33 573.17 791.00 572.00 C 790.67 570.83 791.33 569.17 791.00 568.00 C 790.67 566.83 789.33 566.50 789.00 565.00 C 788.67 563.50 789.33 560.50 789.00 559.00 C 788.67 557.50 787.33 557.67 787.00 556.00 C 786.67 554.33 787.33 551.00 787.00 549.00 C 786.67 547.00 785.33 546.67 785.00 544.00 C 784.67 541.33 785.33 535.83 785.00 533.00 C 784.67 530.17 783.33 531.50 783.00 527.00 C 782.67 522.50 782.83 509.67 783.00 506.00 C 783.17 502.33 783.83 506.67 784.00 505.00 C 784.17 503.33 783.83 497.67 784.00 496.00 C 784.17 494.33 784.83 497.33 785.00 495.00 C 785.17 492.67 784.67 484.67 785.00 482.00 C 785.33 479.33 786.67 480.67 787.00 479.00 C 787.33 477.33 786.67 473.83 787.00 472.00 C 787.33 470.17 788.67 469.67 789.00 468.00 C 789.33 466.33 788.67 463.50 789.00 462.00 C 789.33 460.50 790.67 460.33 791.00 459.00 C 791.33 457.67 790.67 455.33 791.00 454.00 C 791.33 452.67 792.00 454.00 793.00 451.00 C 794.00 448.00 795.33 441.00 797.00 436.00 C 798.67 431.00 801.67 423.83 803.00 421.00 C 804.33 418.17 803.67 421.67 805.00 419.00 C 806.33 416.33 809.00 408.67 811.00 405.00 C 813.00 401.33 816.00 398.67 817.00 397.00 C 818.00 395.33 813.00 400.67 817.00 395.00 C 821.00 389.33 833.67 371.67 841.00 363.00 C 848.33 354.33 854.33 349.00 861.00 343.00 C 867.67 337.00 875.67 331.00 881.00 327.00 C 886.33 323.00 890.67 320.33 893.00 319.00 C 895.33 317.67 893.83 319.67 895.00 319.00 C 896.17 318.33 897.00 316.67 900.00 315.00 C 903.00 313.33 910.50 310.33 913.00 309.00 C 915.50 307.67 914.33 307.33 915.00 307.00 C 915.67 306.67 916.33 307.33 917.00 307.00 C 917.67 306.67 915.33 306.67 919.00 305.00 C 922.67 303.33 935.17 298.33 939.00 297.00 C 942.83 295.67 940.00 297.67 942.00 297.00 C 944.00 296.33 948.83 293.67 951.00 293.00 C 953.17 292.33 953.83 293.33 955.00 293.00 C 956.17 292.67 956.67 291.33 958.00 291.00 C 959.33 290.67 961.67 291.33 963.00 291.00 C 964.33 290.67 964.67 289.33 966.00 289.00 C 967.33 288.67 969.50 289.33 971.00 289.00 C 972.50 288.67 973.00 287.33 975.00 287.00 C 977.00 286.67 980.83 287.33 983.00 287.00 C 985.17 286.67 985.83 285.33 988.00 285.00 C 990.17 284.67 993.33 285.33 996.00 285.00 C 998.67 284.67 996.17 283.33 1004.00 283.00 C 1011.83 282.67 1035.33 282.67 1043.00 283.00 Z"/>
    <path id="spiral" d="M 985.00 380.00 C 977.67 380.33 981.83 381.67 980.00 382.00 C 978.17 382.33 975.50 381.67 974.00 382.00 C 972.50 382.33 972.33 383.67 971.00 384.00 C 969.67 384.33 971.83 382.00 966.00 384.00 C 960.17 386.00 945.00 391.33 936.00 396.00 C 927.00 400.67 919.33 406.00 912.00 412.00 C 904.67 418.00 897.67 425.33 892.00 432.00 C 886.33 438.67 880.33 448.33 878.00 452.00 C 875.67 455.67 878.67 452.83 878.00 454.00 C 877.33 455.17 875.67 455.67 874.00 459.00 C 872.33 462.33 869.33 471.17 868.00 474.00 C 866.67 476.83 866.67 474.00 866.00 476.00 C 865.33 478.00 864.67 483.83 864.00 486.00 C 863.33 488.17 862.33 487.50 862.00 489.00 C 861.67 490.50 862.33 493.33 862.00 495.00 C 861.67 496.67 860.67 493.67 860.00 499.00 C 859.33 504.33 858.17 522.17 858.00 527.00 C 857.83 531.83 858.67 524.67 859.00 528.00 C 859.33 531.33 858.83 539.83 860.00 547.00 C 861.17 554.17 864.33 565.33 866.00 571.00 C 867.67 576.67 868.67 578.33 870.00 581.00 C 871.33 583.67 873.33 585.67 874.00 587.00 C 874.67 588.33 871.67 585.33 874.00 589.00 C 876.33 592.67 884.00 604.00 888.00 609.00 C 892.00 614.00 893.00 615.00 898.00 619.00 C 903.00 623.00 914.33 630.67 918.00 633.00 C 921.67 635.33 918.00 632.00 920.00 633.00 C 922.00 634.00 927.83 638.00 930.00 639.00 C 932.17 640.00 931.00 638.33 933.00 639.00 C 935.00 639.67 939.67 642.33 942.00 643.00 C 944.33 643.67 945.50 642.67 947.00 643.00 C 948.50 643.33 949.00 644.67 951.00 645.00 C 953.00 645.33 957.50 644.83 959.00 645.00 C 960.50 645.17 957.83 645.83 960.00 646.00 C 962.17 646.17 967.50 646.83 972.00 646.00 C 976.50 645.17 982.83 643.50 987.00 641.00 C 991.17 638.50 994.83 634.00 997.00 631.00 C 999.17 628.00 999.50 626.00 1000.00 623.00 C 1000.50 620.00 1000.17 615.50 1000.00 613.00 C 999.83 610.50 1000.33 610.17 999.00 608.00 C 997.67 605.83 994.50 601.67 992.00 600.00 C 989.50 598.33 985.67 598.67 984.00 598.00 C 982.33 597.33 982.83 596.33 982.00 596.00 C 981.17 595.67 981.17 597.00 979.00 596.00 C 976.83 595.00 971.00 591.00 969.00 590.00 C 967.00 589.00 969.00 591.33 967.00 590.00 C 965.00 588.67 960.67 585.67 957.00 582.00 C 953.33 578.33 947.67 571.50 945.00 568.00 C 942.33 564.50 942.00 563.50 941.00 561.00 C 940.00 558.50 939.67 554.67 939.00 553.00 C 938.33 551.33 937.33 552.17 937.00 551.00 C 936.67 549.83 937.33 547.50 937.00 546.00 C 936.67 544.50 935.33 546.67 935.00 542.00 C 934.67 537.33 934.67 522.67 935.00 518.00 C 935.33 513.33 936.33 516.33 937.00 514.00 C 937.67 511.67 938.33 506.50 939.00 504.00 C 939.67 501.50 939.67 501.17 941.00 499.00 C 942.33 496.83 946.00 492.67 947.00 491.00 C 948.00 489.33 944.17 492.17 947.00 489.00 C 949.83 485.83 959.00 476.00 964.00 472.00 C 969.00 468.00 974.50 466.17 977.00 465.00 C 979.50 463.83 978.33 465.33 979.00 465.00 C 979.67 464.67 979.83 463.33 981.00 463.00 C 982.17 462.67 984.67 463.33 986.00 463.00 C 987.33 462.67 987.17 461.33 989.00 461.00 C 990.83 460.67 995.50 461.17 997.00 461.00 C 998.50 460.83 994.83 460.00 998.00 460.00 C 1001.17 460.00 1012.50 460.50 1016.00 461.00 C 1019.50 461.50 1017.83 462.67 1019.00 463.00 C 1020.17 463.33 1020.67 462.33 1023.00 463.00 C 1025.33 463.67 1027.17 463.67 1033.00 467.00 C 1038.83 470.33 1050.50 477.00 1058.00 483.00 C 1065.50 489.00 1071.67 495.33 1078.00 503.00 C 1084.33 510.67 1093.00 524.33 1096.00 529.00 C 1099.00 533.67 1094.67 528.33 1096.00 531.00 C 1097.33 533.67 1102.67 542.17 1104.00 545.00 C 1105.33 547.83 1103.33 546.17 1104.00 548.00 C 1104.67 549.83 1107.33 554.00 1108.00 556.00 C 1108.67 558.00 1107.67 558.83 1108.00 560.00 C 1108.33 561.17 1109.67 561.67 1110.00 563.00 C 1110.33 564.33 1109.67 566.50 1110.00 568.00 C 1110.33 569.50 1111.67 570.17 1112.00 572.00 C 1112.33 573.83 1111.67 577.00 1112.00 579.00 C 1112.33 581.00 1113.67 578.50 1114.00 584.00 C 1114.33 589.50 1114.33 606.17 1114.00 612.00 C 1113.67 617.83 1112.33 616.50 1112.00 619.00 C 1111.67 621.50 1112.33 624.83 1112.00 627.00 C 1111.67 629.17 1110.33 630.17 1110.00 632.00 C 1109.67 633.83 1110.33 636.67 1110.00 638.00 C 1109.67 639.33 1108.33 638.83 1108.00 640.00 C 1107.67 641.17 1108.67 642.50 1108.00 645.00 C 1107.33 647.50 1104.67 652.67 1104.00 655.00 C 1103.33 657.33 1104.33 658.00 1104.00 659.00 C 1103.67 660.00 1102.33 660.17 1102.00 661.00 C 1101.67 661.83 1102.33 663.17 1102.00 664.00 C 1101.67 664.83 1100.67 664.33 1100.00 666.00 C 1099.33 667.67 1098.67 672.33 1098.00 674.00 C 1097.33 675.67 1096.33 675.33 1096.00 676.00 C 1095.67 676.67 1096.33 677.33 1096.00 678.00 C 1095.67 678.67 1094.33 679.33 1094.00 680.00 C 1093.67 680.67 1095.00 679.83 1094.00 682.00 C 1093.00 684.17 1090.33 689.33 1088.00 693.00 C 1085.67 696.67 1081.33 701.83 1080.00 704.00 C 1078.67 706.17 1083.67 701.00 1080.00 706.00 C 1076.33 711.00 1064.33 726.67 1058.00 734.00 C 1051.67 741.33 1045.67 746.67 1042.00 750.00 C 1038.33 753.33 1038.17 752.17 1036.00 754.00 C 1033.83 755.83 1030.67 759.67 1029.00 761.00 C 1027.33 762.33 1027.17 761.17 1026.00 762.00 C 1024.83 762.83 1025.67 763.33 1022.00 766.00 C 1018.33 768.67 1007.33 776.00 1004.00 778.00 C 1000.67 780.00 1005.00 776.33 1002.00 778.00 C 999.00 779.67 990.00 784.33 986.00 788.00 C 982.00 791.67 979.33 795.67 978.00 800.00 C 976.67 804.33 977.67 810.67 978.00 814.00 C 978.33 817.33 978.50 817.50 980.00 820.00 C 981.50 822.50 984.33 826.50 987.00 829.00 C 989.67 831.50 993.17 833.67 996.00 835.00 C 998.83 836.33 1000.00 836.67 1004.00 837.00 C 1008.00 837.33 1016.67 837.33 1020.00 837.00 C 1023.33 836.67 1022.50 835.33 1024.00 835.00 C 1025.50 834.67 1026.67 835.67 1029.00 835.00 C 1031.33 834.33 1035.83 831.67 1038.00 831.00 C 1040.17 830.33 1041.00 831.33 1042.00 831.00 C 1043.00 830.67 1042.50 829.67 1044.00 829.00 C 1045.50 828.33 1049.50 827.67 1051.00 827.00 C 1052.50 826.33 1051.00 826.00 1053.00 825.00 C 1055.00 824.00 1057.83 824.17 1063.00 821.00 C 1068.17 817.83 1080.00 808.67 1084.00 806.00 C 1088.00 803.33 1084.50 806.83 1087.00 805.00 C 1089.50 803.17 1092.00 801.67 1099.00 795.00 C 1106.00 788.33 1120.83 774.17 1129.00 765.00 C 1137.17 755.83 1141.67 749.50 1148.00 740.00 C 1154.33 730.50 1163.50 714.50 1167.00 708.00 C 1170.50 701.50 1168.33 702.50 1169.00 701.00 C 1169.67 699.50 1169.67 701.83 1171.00 699.00 C 1172.33 696.17 1176.00 687.00 1177.00 684.00 C 1178.00 681.00 1176.67 681.83 1177.00 681.00 C 1177.33 680.17 1178.67 680.00 1179.00 679.00 C 1179.33 678.00 1178.67 676.00 1179.00 675.00 C 1179.33 674.00 1180.67 674.00 1181.00 673.00 C 1181.33 672.00 1180.67 670.17 1181.00 669.00 C 1181.33 667.83 1182.67 667.17 1183.00 666.00 C 1183.33 664.83 1182.67 663.17 1183.00 662.00 C 1183.33 660.83 1184.67 660.33 1185.00 659.00 C 1185.33 657.67 1184.67 655.50 1185.00 654.00 C 1185.33 652.50 1186.67 651.83 1187.00 650.00 C 1187.33 648.17 1186.67 644.83 1187.00 643.00 C 1187.33 641.17 1188.67 641.17 1189.00 639.00 C 1189.33 636.83 1188.67 632.33 1189.00 630.00 C 1189.33 627.67 1190.67 628.67 1191.00 625.00 C 1191.33 621.33 1190.83 611.00 1191.00 608.00 C 1191.17 605.00 1191.67 610.50 1192.00 607.00 C 1192.33 603.50 1193.00 590.50 1193.00 587.00 C 1193.00 583.50 1192.17 587.67 1192.00 586.00 C 1191.83 584.33 1192.17 578.67 1192.00 577.00 C 1191.83 575.33 1191.17 578.67 1191.00 576.00 C 1190.83 573.33 1191.33 564.17 1191.00 561.00 C 1190.67 557.83 1189.33 559.00 1189.00 557.00 C 1188.67 555.00 1189.33 551.00 1189.00 549.00 C 1188.67 547.00 1187.33 546.67 1187.00 545.00 C 1186.67 543.33 1187.33 540.50 1187.00 539.00 C 1186.67 537.50 1185.33 537.17 1185.00 536.00 C 1184.67 534.83 1185.33 533.17 1185.00 532.00 C 1184.67 530.83 1183.33 530.33 1183.00 529.00 C 1182.67 527.67 1183.33 525.17 1183.00 524.00 C 1182.67 522.83 1181.33 523.00 1181.00 522.00 C 1180.67 521.00 1182.33 522.00 1181.00 518.00 C 1179.67 514.00 1174.67 501.67 1173.00 498.00 C 1171.33 494.33 1171.33 496.67 1171.00 496.00 C 1170.67 495.33 1171.33 494.67 1171.00 494.00 C 1170.67 493.33 1169.33 492.67 1169.00 492.00 C 1168.67 491.33 1170.00 492.17 1169.00 490.00 C 1168.00 487.83 1164.67 481.67 1163.00 479.00 C 1161.33 476.33 1159.67 475.17 1159.00 474.00 C 1158.33 472.83 1159.67 473.00 1159.00 472.00 C 1158.33 471.00 1155.67 469.00 1155.00 468.00 C 1154.33 467.00 1157.33 469.33 1155.00 466.00 C 1152.67 462.67 1147.67 455.33 1141.00 448.00 C 1134.33 440.67 1124.50 430.00 1115.00 422.00 C 1105.50 414.00 1092.33 405.00 1084.00 400.00 C 1075.67 395.00 1068.50 393.67 1065.00 392.00 C 1061.50 390.33 1063.83 390.33 1063.00 390.00 C 1062.17 389.67 1063.00 391.00 1060.00 390.00 C 1057.00 389.00 1048.33 385.00 1045.00 384.00 C 1041.67 383.00 1041.50 384.33 1040.00 384.00 C 1038.50 383.67 1037.83 382.33 1036.00 382.00 C 1034.17 381.67 1031.00 382.33 1029.00 382.00 C 1027.00 381.67 1031.33 380.33 1024.00 380.00 C 1016.67 379.67 992.33 379.67 985.00 380.00 Z"/>
    <path id="base" d="M 368.00 1839.00 L 368.00 1847.00 L 371.00 1848.00 L 1675.00 1847.00 L 1673.00 1830.00 L 1597.00 1555.00 L 1505.00 1554.00 L 1503.00 1552.00 L 1461.00 1378.00 L 1459.00 1376.00 L 1375.00 1376.00 L 1373.00 1374.00 L 1344.00 1217.00 L 1341.00 1214.00 L 1257.00 1214.00 L 1255.00 1212.00 L 1237.00 1077.00 L 1233.00 1064.00 L 808.00 1064.00 L 804.00 1073.00 L 785.00 1212.00 L 783.00 1214.00 L 704.00 1214.00 L 700.00 1216.00 L 674.00 1341.00 L 672.00 1361.00 L 669.00 1373.00 L 666.00 1376.00 L 585.00 1376.00 L 582.00 1378.00 L 540.00 1550.00 L 535.00 1554.00 L 448.00 1554.00 L 446.00 1556.00 Z M 465.00 1763.00 L 499.00 1640.00 L 504.00 1631.00 L 1542.00 1631.00 L 1546.00 1635.00 L 1582.00 1766.00 L 1580.00 1768.00 L 467.00 1768.00 Z M 615.00 1545.00 L 637.00 1452.00 L 640.00 1448.00 L 1404.00 1448.00 L 1408.00 1456.00 L 1430.00 1552.00 L 1428.00 1554.00 L 618.00 1554.00 L 615.00 1552.00 Z M 739.00 1370.00 L 753.00 1294.00 L 758.00 1283.00 L 1284.00 1283.00 L 1288.00 1291.00 L 1303.00 1375.00 L 741.00 1376.00 Z M 849.00 1208.00 L 859.00 1136.00 L 863.00 1124.00 L 1175.00 1124.00 L 1180.00 1145.00 L 1188.00 1212.00 L 1186.00 1214.00 L 851.00 1214.00 Z"/>
  </g>
</svg>